<?xml version="1.0" encoding="utf-8"?>
<!-- Generator: Adobe Illustrator 16.0.4, SVG Export Plug-In . SVG Version: 6.00 Build 0)  -->
<!DOCTYPE svg PUBLIC "-//W3C//DTD SVG 1.1//EN" "http://www.w3.org/Graphics/SVG/1.1/DTD/svg11.dtd" [
	<!ENTITY ns_flows "http://ns.adobe.com/Flows/1.0/">
	<!ENTITY ns_extend "http://ns.adobe.com/Extensibility/1.0/">
	<!ENTITY ns_ai "http://ns.adobe.com/AdobeIllustrator/10.0/">
	<!ENTITY ns_graphs "http://ns.adobe.com/Graphs/1.0/">
	<!ENTITY ns_vars "http://ns.adobe.com/Variables/1.0/">
	<!ENTITY ns_imrep "http://ns.adobe.com/ImageReplacement/1.0/">
	<!ENTITY ns_sfw "http://ns.adobe.com/SaveForWeb/1.0/">
	<!ENTITY ns_custom "http://ns.adobe.com/GenericCustomNamespace/1.0/">
	<!ENTITY ns_adobe_xpath "http://ns.adobe.com/XPath/1.0/">
	<!ENTITY st0 "fill:none;stroke:#333333;stroke-miterlimit:10;">
	<!ENTITY st1 "fill:#333333;">
]>
<svg version="1.1" id="レイヤー_1" xmlns:x="&ns_extend;" xmlns:i="&ns_ai;" xmlns:graph="&ns_graphs;"
	 xmlns="http://www.w3.org/2000/svg" xmlns:xlink="http://www.w3.org/1999/xlink" xmlns:a="http://ns.adobe.com/AdobeSVGViewerExtensions/3.0/"
	 x="0px" y="0px" width="44px" height="31px" viewBox="0 0 44 31" style="enable-background:new 0 0 44 31;" xml:space="preserve">
<metadata>
	<sfw  xmlns="&ns_sfw;">
		<slices></slices>
		<sliceSourceBounds  width="172" height="31" x="53" y="-195" bottomLeftOrigin="true"></sliceSourceBounds>
	</sfw>
</metadata>
<g>
	<rect x="2.5" y="2.5" style="&st0;" width="13" height="13"/>
	<g>
		<path style="&st1;" d="M0,3.5C0,4.329,0.671,5,1.5,5h2C4.329,5,5,4.329,5,3.5v-2C5,0.671,4.329,0,3.5,0h-2C0.671,0,0,0.671,0,1.5
			V3.5z"/>
	</g>
	<g>
		<path style="&st1;" d="M0,16.5C0,17.329,0.671,18,1.5,18h2C4.329,18,5,17.329,5,16.5v-2C5,13.671,4.329,13,3.5,13h-2
			C0.671,13,0,13.671,0,14.5V16.5z"/>
	</g>
	<g>
		<path style="&st1;" d="M0,29.5C0,30.329,0.671,31,1.5,31h2C4.329,31,5,30.329,5,29.5v-2C5,26.671,4.329,26,3.5,26h-2
			C0.671,26,0,26.671,0,27.5V29.5z"/>
	</g>
	<g>
		<path style="&st1;" d="M13,3.5C13,4.329,13.671,5,14.5,5h2C17.329,5,18,4.329,18,3.5v-2C18,0.671,17.329,0,16.5,0h-2
			C13.671,0,13,0.671,13,1.5V3.5z"/>
	</g>
	<g>
		<path style="&st1;" d="M13,16.5c0,0.829,0.671,1.5,1.5,1.5h2c0.829,0,1.5-0.671,1.5-1.5v-2c0-0.829-0.671-1.5-1.5-1.5h-2
			c-0.829,0-1.5,0.671-1.5,1.5V16.5z"/>
	</g>
	<g>
		<path style="&st1;" d="M13,29.5c0,0.829,0.671,1.5,1.5,1.5h2c0.829,0,1.5-0.671,1.5-1.5v-2c0-0.829-0.671-1.5-1.5-1.5h-2
			c-0.829,0-1.5,0.671-1.5,1.5V29.5z"/>
	</g>
	<g>
		<path style="&st1;" d="M26,3.5C26,4.329,26.671,5,27.5,5h2C30.329,5,31,4.329,31,3.5v-2C31,0.671,30.329,0,29.5,0h-2
			C26.671,0,26,0.671,26,1.5V3.5z"/>
	</g>
	<g>
		<path style="&st1;" d="M26,16.5c0,0.829,0.671,1.5,1.5,1.5h2c0.829,0,1.5-0.671,1.5-1.5v-2c0-0.829-0.671-1.5-1.5-1.5h-2
			c-0.829,0-1.5,0.671-1.5,1.5V16.5z"/>
	</g>
	<g>
		<path style="&st1;" d="M26,29.5c0,0.829,0.671,1.5,1.5,1.5h2c0.829,0,1.5-0.671,1.5-1.5v-2c0-0.829-0.671-1.5-1.5-1.5h-2
			c-0.829,0-1.5,0.671-1.5,1.5V29.5z"/>
	</g>
	<g>
		<path style="&st1;" d="M39,3.5C39,4.329,39.671,5,40.5,5h2C43.329,5,44,4.329,44,3.5v-2C44,0.671,43.329,0,42.5,0h-2
			C39.671,0,39,0.671,39,1.5V3.5z"/>
	</g>
	<g>
		<path style="&st1;" d="M39,16.5c0,0.829,0.671,1.5,1.5,1.5h2c0.829,0,1.5-0.671,1.5-1.5v-2c0-0.829-0.671-1.5-1.5-1.5h-2
			c-0.829,0-1.5,0.671-1.5,1.5V16.5z"/>
	</g>
	<g>
		<path style="&st1;" d="M39,29.5c0,0.829,0.671,1.5,1.5,1.5h2c0.829,0,1.5-0.671,1.5-1.5v-2c0-0.829-0.671-1.5-1.5-1.5h-2
			c-0.829,0-1.5,0.671-1.5,1.5V29.5z"/>
	</g>
	<rect x="15.5" y="2.5" style="&st0;" width="13" height="13"/>
	<rect x="28.5" y="2.5" style="&st0;" width="13" height="13"/>
	<rect x="2.5" y="15.5" style="&st0;" width="13" height="13"/>
	<rect x="15.5" y="15.5" style="&st0;" width="13" height="13"/>
	<rect x="28.5" y="15.5" style="&st0;" width="13" height="13"/>
</g>
</svg>
